<?xml version="1.0" encoding="UTF-8"?>
<svg width="5e3" height="4095.3672" clip-rule="evenodd" fill-rule="evenodd" stroke-linejoin="round" stroke-miterlimit="2" version="1.1" viewBox="0 0 5e3 4095.3672" xml:space="preserve" xmlns="http://www.w3.org/2000/svg">
    <g transform="matrix(.25000001 0 0 .25000001 -250.00001 -702.31643)" clip-rule="evenodd" fill="#4a4139" fill-rule="nonzero" stroke-linejoin="round" stroke-miterlimit="2" stroke-width=".96">
        <g id="curly-braces" transform="translate(.01758 -.003)">
            <path d="m7209.6917 2809.2796c-584.1446 0-1095.2702 38.0965-1533.3787 114.2888-438.1113 76.1933-803.2014 203.1819-1095.2737 380.9643-292.0724 177.7834-511.127 422.2343-657.1631 733.3557-146.0362 311.1168-219.0525 701.604-219.0525 1171.4587 0 647.6352 28.5716 1327.0244 85.7156 2038.1569 57.1449 711.1296 85.7175 1371.4672 85.7175 1981.0086 0 190.4823-38.0955 380.9635-114.2888 571.4457-76.1923 190.4813-219.0541 355.5647-428.5837 495.2517-209.5306 139.686-501.6035 253.976-876.2175 342.868-374.6112 88.891-860.3409 133.337-1457.18438 133.337v457.157c596.84158 0 1082.57028 44.445 1457.18438 133.337 374.614 88.892 666.6869 203.181 876.2175 342.868 209.5296 139.687 352.3914 304.77 428.5837 495.253 76.1933 190.482 114.2888 380.963 114.2888 571.446 0 685.728-28.5726 1349.241-85.7175 1990.53-57.144 641.289-85.7156 1317.501-85.7156 2028.633 0 469.851 73.0163 860.338 219.0525 1171.459 146.0361 311.12 365.0907 555.572 657.1631 733.355 292.0752 177.782 657.1653 304.771 1095.2737 380.965 438.1056 76.192 949.2341 114.289 1533.3787 114.289v0.03h914.3137v-419.059h-1142.8912c-558.744 0-1012.7255-41.272-1361.9418-123.814-349.2173-82.542-625.4161-209.531-828.5962-380.964-203.1812-171.434-339.6928-387.313-409.5357-647.638-69.8438-260.326-104.7656-561.921-104.7656-904.789 0-317.469 6.3502-625.415 19.0481-923.837 12.6989-298.422 28.573-596.842 47.6213-895.264s34.9223-603.194 47.6212-914.314c12.6989-311.122 19.0481-644.464 19.0481-1000.031 0-533.354-104.7672-961.938-314.2968-1285.756-209.5296-323.82-631.7593-542.875-1266.6994-657.164v-76.192c634.9363-114.289 1057.1688-333.342 1266.6994-657.161 209.5296-323.8278 314.2968-752.4083 314.2968-1285.7574 0-622.2432-22.2232-1254.012-66.6693-1895.3007-44.4461-641.2896-66.6694-1254.0069-66.6694-1838.1505 0-342.8679 34.9218-644.4637 104.7656-904.7888 69.8429-260.3251 206.3545-476.2042 409.5357-647.6381 203.1801-171.4339 479.3789-298.4207 828.5962-380.9625 349.2192-82.5418 803.1959-123.8138 1361.9418-123.8138h1142.8912v-419.0606z"/>
            <path d="m13895.008 2809.2686v419.0606h1142.89c558.743 0 1015.898 41.2701 1371.464 123.8119 355.566 82.5417 634.94 209.5304 838.12 380.9643 203.181 171.4339 342.868 387.3131 419.06 647.6382 76.193 260.3251 114.289 561.9209 114.289 904.7887 0 584.1408-25.397 1196.862-76.193 1838.1506-50.795 641.2896-76.192 1273.0574-76.192 1895.2987 0 520.6464 101.59 946.0564 304.77 1276.2244 203.175 330.169 622.239 552.397 1257.178 666.686v76.195c-634.936 114.289-1053.996 336.517-1257.178 666.686-203.18 330.164-304.77 755.574-304.77 1276.224 0 355.569 6.35 688.911 19.048 1000.032 12.699 311.119 28.571 615.889 47.619 914.311 19.049 298.422 38.098 596.845 57.146 895.266 19.048 298.422 28.572 606.368 28.572 923.837 0 342.868-38.096 644.464-114.289 904.789-76.192 260.325-215.879 476.204-419.06 647.638-203.18 171.433-482.554 298.422-838.12 380.964-355.564 82.542-812.717 123.812-1371.464 123.812h-1142.89v419.049h914.312c584.144 0 1095.271-38.099 1533.379-114.288 438.112-76.193 800.027-203.182 1085.75-380.964 285.723-177.784 501.602-422.235 647.638-733.356 146.037-311.117 219.054-701.604 219.054-1171.459 0-711.139-25.397-1387.345-76.192-2028.634-50.796-641.289-76.192-1304.797-76.192-1990.532 0-190.482 38.095-380.962 114.289-571.445 76.192-190.483 219.052-355.565 428.583-495.252 209.529-139.686 498.428-253.976 866.693-342.868 368.265-88.891 850.818-133.337 1447.66-133.337v-457.156c-596.841 0-1079.396-44.446-1447.66-133.337-368.265-88.893-657.164-203.182-866.693-342.869-209.531-139.686-352.391-304.7714-428.583-495.2527-76.194-190.4822-114.289-380.9633-114.289-571.4455 0-609.5424 25.396-1269.8745 76.192-1981.0069 50.795-711.1296 76.192-1390.5187 76.192-2038.1568 0-469.8509-73.017-860.3382-219.054-1171.4588-146.036-311.1202-361.915-555.5722-647.638-733.3556-285.726-177.7824-647.642-304.7711-1085.75-380.9644-438.106-76.1922-949.235-114.2887-1533.379-114.2887z"/>
        </g>
        <g id="wren">
            <path transform="translate(.01758 -.003)" d="m14600.54 7430.5435c-189.968 2.9232-271.8 87.6776-274.722 277.6463 2.922 166.5878 122.747 295.1822 274.722 292.2599 149.052-2.9232 289.336-157.8213 283.491-303.9505v-2.9231c-5.846-151.9748-131.516-268.877-283.491-263.0326z"/>
            <path transform="translate(.01758 -.003)" d="m5730.4874 5332.1317v0.01c-280.5687 73.0646-540.6795 207.5034-686.8088 479.3044-37.9939 67.2192-49.6839 143.2072-40.9162 219.195 78.91 464.6889 160.741 929.3791 248.4188 1394.0719 108.1363 587.4432 336.0988 1131.0451 590.3643 1665.8793 274.7194 569.904 604.9719 1104.7357 1040.4375 1569.4267 70.1424 75.988 166.5884 137.362 242.5762 40.917 40.9162-52.607 43.8382-181.2 8.7675-242.575-111.0585-187.045-236.7308-365.324-377.0156-534.8337-453.0009-546.528-809.557-1151.5032-1011.2156-1826.6212-184.1232-613.7472-298.1033-1247.9476-438.3881-1873.3819-32.1485-146.1292 122.7479-438.3903 254.265-470.5388 166.5878-40.9161 330.2532-5.8429 415.0088 151.9763 333.1766 631.2768 686.8103 1253.7895 970.3011 1908.45 347.7888 803.712 455.923 1677.5713 642.9694 2528.0453 52.6061 239.652 55.5303 482.226-181.2 672.195-151.9747 119.826-263.034 292.259-371.1694 455.925-37.9939 58.451-35.0716 172.431 0 236.728 23.3808 46.762 131.5158 75.989 198.735 70.144 569.904-58.452 1139.8082-154.898 1709.7131-189.97 455.9271-29.225 914.7721-2.923 1370.6966 37.994 499.756 43.839 990.754-2.922 1475.904-87.677 558.215-99.368 1066.746-318.562 1452.528-754.028 242.575-274.724 417.932-587.442 397.473-970.3007-2.922-55.5293-58.453-111.0579-87.679-166.5862-49.684 43.8383-113.981 75.9851-143.207 131.5143-87.678 160.7424-146.128 336.0976-236.728 490.9946-178.279 306.873-409.165 572.829-739.418 701.423-490.992 189.968-1005.369 318.562-1540.203 309.795-528.992-8.768-1055.0602-40.917-1584.049-32.149-377.0151 8.767-754.029 58.451-1131.0431 102.29-257.1888 29.226-514.377 75.989-794.9457 119.828 134.4394-134.439 248.4212-239.654 353.6344-353.634 467.616-499.759 999.5272-923.533 1572.3544-1294.7025 830.016-537.7527 1674.654-1046.2835 2709.246-1107.6582 248.42-14.6131 415.008-160.7423 526.066-409.1625 108.137-239.6524 260.111-485.1507 453.002-660.5063 432.548-391.6272 993.682-496.8398 1557.742-561.1367 377.012-40.9162 718.957 75.9862 1066.745 210.4255 359.478 137.3616 406.239 242.574 172.432 531.9112-32.148 37.993-58.45 81.8327-87.677 122.7488-286.414 423.7728-394.55 911.8448-528.989 1388.2275-140.285 490.992-230.886 993.6782-353.636 1487.5962-157.819 622.509-534.832 1119.35-1011.215 1508.055-648.816 531.911-1452.53 727.725-2267.932 862.164-491.002 78.91-993.685 96.445-1470.068 277.645-137.3614 49.685-365.3235 46.762-470.5367-35.07-312.7171-239.652-584.5186-531.911-873.8549-803.714-169.5101-160.742-330.2539-330.251-517.2994-470.536-55.5293-40.916-210.4255-23.379-263.0325 26.304-84.7555 78.91-43.8375 187.049 46.7625 277.646 333.1795 333.175 660.5097 669.273 987.84 1011.216 613.7376 637.123 1221.644 1274.249 1829.538 1914.298 75.987 81.832 149.052 172.431 210.427 268.877 111.058 166.587 40.916 365.325-151.975 423.776-131.517 37.994-277.647 37.993-406.241 87.677-105.213 40.917-195.812 128.595-292.258 192.893 105.214 32.148 213.349 96.445 318.562 90.6 914.774-55.529 1826.622-67.221 2715.09 213.348 49.684 14.612 154.9-5.845 163.667-32.148 17.536-61.375 5.844-128.595-26.305-184.123-140.284-236.731-122.747-268.877 157.821-303.949 55.53-8.768 102.29-58.452 151.974-87.679-32.148-43.838-55.529-99.368-96.445-131.517-46.762-32.148-102.29-52.606-157.819-61.373-409.168-75.987-830.022-87.678-1242.107-32.149-236.73 32.147-420.852-29.225-581.595-184.123-239.652-227.962-488.073-450.08-701.423-701.423-192.891-225.04-356.555-470.537-493.918-733.57-20.458-37.994-35.071-81.833-40.916-125.671-26.303-195.815 111.061-371.169 303.948-397.472 111.059-14.613 227.964-2.922 333.177 35.072 645.898 254.261 1163.193 692.65 1660.033 1160.265 125.672 119.826 48.062 210.637-103.912 307.083-80.134 42.752-417.402 39.645-606.879 265.357 91.375 25.318 208.105 55.45 340.641 53.588 206.201-2.899 436.655-48.23 561.421-39.679 507.972-12.396 1004.071 97.537 1477.531 147.222 119.741 11.973 293.718 36.581 313.434-8.289 13.969-31.792-19.688-105.808-95.894-189.354-5.845-43.84-106.446-120.18-94.757-161.096 14.646-53.312 131.982-38.291 227.22-65.606 102.802-29.485 183.112-100.154 173.023-128.598-11.786-33.223-80.876-98.031-179.88-122.813-129.449-32.403-303.04-11.63-395.753-19.356-92.293 8.001-159.815 16.767-272.263 27.994-435.47 102.291-800.331 9.535-1113.048-341.176-137.362-157.819-321.485-271.802-485.151-400.396-134.439-108.132-274.723-201.657-409.162-312.716-134.44-111.057-102.29-321.485 55.53-371.169 108.135-32.148 216.271-61.374 327.329-81.833 1022.909-187.047 1788.63-756.95 2367.303-1592.812 499.763-724.8 651.738-1578.2 824.17-2416.983 87.678-432.5472 207.505-856.3225 432.545-1236.2588 201.659-339.0211 514.375-561.1366 879.698-713.1112 58.453-23.3808 93.524-108.1376 137.363-163.6669-61.375-43.8384-113.982-108.1345-184.123-128.5931-70.143-20.4585-151.975-8e-4 -227.963-5.8462-175.355-14.6132-356.556-5.8435-523.143-52.6051-344.863-99.3686-672.193-263.0338-1019.981-333.1762-324.405-64.297-675.116-102.2908-999.523-49.6838-739.419 116.9088-1280.098 575.755-1698.029 1174.8862-163.665 236.7293-371.169 365.3252-648.815 403.3182-724.8 99.3686-1382.381 385.7812-2004.8927 751.1044-531.912 309.7925-1025.8293 675.1185-1478.8312 1090.1265-204.5818 189.968-330.2538 146.129-388.7062-113.982-122.7485-555.2924-239.6522-1113.5094-377.0138-1665.879-265.9584-1066.7424-821.2487-1999.0518-1426.2244-2905.0556-55.5285-84.7535-210.4211-178.2741-292.2543-157.8187z"/>
        </g>
    </g>
</svg>
