<?xml version="1.0" encoding="UTF-8" standalone="no"?><!DOCTYPE svg PUBLIC "-//W3C//DTD SVG 1.1//EN" "http://www.w3.org/Graphics/SVG/1.1/DTD/svg11.dtd"><svg width="100%" height="100%" viewBox="0 0 20834 17064" version="1.1" xmlns="http://www.w3.org/2000/svg" xmlns:xlink="http://www.w3.org/1999/xlink" xml:space="preserve" xmlns:serif="http://www.serif.com/" style="fill-rule:evenodd;clip-rule:evenodd;stroke-linecap:round;stroke-linejoin:round;stroke-miterlimit:1.5;"><g id="background-hex-4a4139"><rect x="-6666.67" y="-1250" width="34166.7" height="19583.3" style="fill:#4a4139;stroke:#4a4139;stroke-width:4.17px;"/></g><path id="white" d="M13432.3,17064l0,-436.521l1190.51,0c582.028,0 1058.23,-42.991 1428.61,-128.972c370.381,-85.981 661.395,-218.261 873.041,-396.837c211.647,-178.577 357.154,-403.451 436.521,-674.623c79.368,-271.172 119.051,-585.335 119.051,-942.489c0,-330.697 -9.921,-651.474 -29.762,-962.33c-19.842,-310.856 -39.684,-621.711 -59.526,-932.567c-19.842,-310.856 -36.377,-628.326 -49.605,-952.409c-13.228,-324.084 -19.842,-671.316 -19.842,-1041.7c0,-542.344 105.824,-985.479 317.47,-1329.4c211.647,-343.926 648.168,-575.414 1309.56,-694.465l-0,-79.368c-661.395,-119.051 -1097.92,-350.539 -1309.56,-694.465c-211.646,-343.925 -317.47,-787.06 -317.47,-1329.4c0,-648.168 26.456,-1306.26 79.368,-1974.27c52.912,-668.009 79.367,-1306.26 79.367,-1914.74c0,-357.154 -39.683,-671.317 -119.051,-942.489c-79.367,-271.172 -224.874,-496.046 -436.521,-674.623c-211.646,-178.577 -502.66,-310.856 -873.041,-396.837c-370.382,-85.981 -846.586,-128.972 -1428.61,-128.972l-1190.51,-0l0,-436.521l952.409,0c608.484,0 1140.91,39.684 1597.27,119.051c456.363,79.368 833.358,211.647 1130.99,396.837c297.628,185.191 522.502,439.828 674.623,763.912c152.121,324.084 228.181,730.842 228.181,1220.27c0,674.623 -26.455,1382.32 -79.367,2123.08c-52.912,740.763 -79.367,1428.61 -79.367,2063.55c-0,198.419 39.683,396.837 119.051,595.256c79.367,198.418 228.181,370.381 446.442,515.888c218.26,145.507 519.195,264.558 902.804,357.154c383.609,92.595 886.27,138.893 1507.98,138.893l0,476.204c-621.711,0 -1124.37,46.298 -1507.98,138.893c-383.609,92.596 -684.544,211.647 -902.804,357.154c-218.261,145.507 -367.075,317.469 -446.442,515.888c-79.368,198.419 -119.051,396.837 -119.051,595.256c-0,714.307 26.455,1405.46 79.367,2073.47c52.912,668.009 79.367,1372.39 79.367,2113.16c0,489.432 -76.06,896.19 -228.181,1220.27c-152.121,324.084 -376.995,578.721 -674.623,763.912c-297.628,185.19 -674.623,317.469 -1130.99,396.837c-456.363,79.367 -988.786,119.051 -1597.27,119.051l-952.409,-0Zm-6963.87,-0c-608.484,-0 -1140.91,-39.684 -1597.27,-119.051c-456.363,-79.368 -836.665,-211.647 -1140.91,-396.837c-304.242,-185.191 -532.423,-439.828 -684.544,-763.912c-152.121,-324.084 -228.181,-730.842 -228.181,-1220.27c-0,-740.763 29.763,-1445.15 89.288,-2113.16c59.526,-668.009 89.289,-1359.17 89.289,-2073.47c-0,-198.419 -39.684,-396.837 -119.052,-595.256c-79.367,-198.419 -228.181,-370.381 -446.441,-515.888c-218.261,-145.507 -522.503,-264.558 -912.726,-357.154c-390.223,-92.595 -896.19,-138.893 -1517.9,-138.893l0,-476.204c621.712,-0 1127.68,-46.298 1517.9,-138.893c390.223,-92.596 694.465,-211.647 912.726,-357.154c218.26,-145.507 367.074,-317.47 446.441,-515.888c79.368,-198.419 119.052,-396.837 119.052,-595.256c-0,-634.939 -29.763,-1322.79 -89.289,-2063.55c-59.525,-740.763 -89.288,-1448.46 -89.288,-2123.08c-0,-489.432 76.06,-896.19 228.181,-1220.27c152.121,-324.084 380.302,-578.721 684.544,-763.912c304.242,-185.19 684.544,-317.469 1140.91,-396.837c456.363,-79.367 988.786,-119.051 1597.27,-119.051l952.409,0l-0,436.521l-1190.51,-0c-582.027,-0 -1054.92,42.991 -1418.69,128.972c-363.768,85.981 -651.475,218.26 -863.121,396.837c-211.647,178.577 -353.847,403.451 -426.6,674.623c-72.754,271.172 -109.13,585.335 -109.13,942.489c-0,608.483 23.148,1246.73 69.446,1914.74c46.298,668.009 69.447,1326.1 69.447,1974.27c-0,555.572 -109.131,1002.01 -327.391,1339.33c-218.261,337.312 -658.088,565.493 -1319.48,684.544l0,79.368c661.396,119.051 1101.22,347.232 1319.48,684.544c218.26,337.311 327.391,783.753 327.391,1339.33c-0,370.382 -6.614,717.614 -19.842,1041.7c-13.228,324.083 -29.763,641.553 -49.605,952.409c-19.842,310.856 -36.377,621.711 -49.605,932.567c-13.227,310.856 -19.841,631.633 -19.841,962.33c-0,357.154 36.376,671.317 109.13,942.489c72.753,271.172 214.953,496.046 426.6,674.623c211.646,178.576 499.353,310.856 863.121,396.837c363.767,85.981 836.665,128.972 1418.69,128.972l1190.51,0l-0,436.521l-952.409,-0Zm5223.73,-3936.01c167.44,-66.976 286.17,-97.419 380.546,-158.307c158.307,-100.464 182.662,-261.815 51.754,-386.634c-517.542,-487.099 -1056.39,-943.754 -1729.2,-1208.61c-109.597,-39.577 -231.372,-51.755 -347.058,-36.533c-200.928,27.399 -344.013,210.061 -316.614,414.034c6.089,45.665 21.311,91.331 42.621,130.908c143.086,273.993 313.57,529.719 514.498,764.135c222.239,261.816 481.01,493.188 730.648,730.648c167.44,161.352 359.235,225.283 605.829,191.795c429.255,-57.843 867.644,-45.665 1293.86,33.488c57.843,9.133 115.686,30.444 164.396,63.932c42.621,33.488 66.976,91.331 100.464,136.996c-51.754,30.444 -100.464,82.198 -158.307,91.331c-292.259,36.533 -310.525,70.021 -164.396,316.615c33.488,57.842 45.666,127.863 27.4,191.795c-9.133,27.399 -118.731,48.709 -170.485,33.488c-925.487,-292.26 -1875.33,-280.082 -2828.22,-222.239c-109.597,6.089 -222.238,-60.887 -331.836,-94.375c100.465,-66.977 194.84,-158.307 304.437,-200.929c133.952,-51.754 286.17,-51.754 423.167,-91.331c200.928,-60.887 273.993,-267.904 158.307,-441.433c-63.932,-100.464 -140.041,-194.839 -219.194,-280.081c-633.228,-666.716 -1266.46,-1330.39 -1905.77,-1994.06c-340.969,-356.191 -681.938,-706.293 -1029,-1053.35c-94.375,-94.376 -136.997,-207.017 -48.71,-289.215c54.799,-51.754 216.15,-70.021 273.993,-27.4c194.839,146.13 362.28,322.703 538.853,490.143c301.392,283.126 584.518,587.563 910.265,837.201c109.597,85.242 347.058,88.287 490.143,36.532c496.232,-188.75 1019.86,-207.016 1531.32,-289.214c849.378,-140.041 1686.58,-344.014 2362.43,-898.088c496.232,-404.901 888.955,-922.443 1053.35,-1570.89c127.864,-514.498 222.239,-1038.13 368.369,-1549.58c140.041,-496.232 252.682,-1004.64 551.03,-1446.07c30.444,-42.621 57.843,-88.287 91.331,-127.863c243.549,-301.393 194.839,-410.99 -179.618,-554.075c-362.279,-140.041 -718.47,-261.815 -1111.19,-219.194c-587.563,66.976 -1172.08,176.573 -1622.65,584.518c-200.928,182.662 -359.235,438.389 -471.877,688.027c-115.686,258.771 -289.215,410.989 -547.986,426.211c-1077.7,63.932 -1957.53,593.651 -2822.13,1153.81c-596.695,386.635 -1150.77,828.068 -1637.87,1348.65c-109.597,118.73 -228.327,228.327 -368.368,368.368c292.259,-45.666 560.163,-94.376 828.068,-124.819c392.723,-45.666 785.446,-97.42 1178.17,-106.553c551.03,-9.133 1099.02,24.355 1650.05,33.488c557.119,9.133 1092.93,-124.819 1604.38,-322.703c344.014,-133.952 584.518,-410.989 770.225,-730.648c94.375,-161.351 155.262,-344.013 246.593,-511.453c30.444,-57.843 97.42,-91.331 149.174,-136.996c30.444,57.842 88.287,115.685 91.331,173.528c21.311,398.812 -161.351,724.559 -414.033,1010.73c-401.857,453.61 -931.576,681.938 -1513.05,785.446c-505.365,88.287 -1016.82,136.997 -1537.4,91.331c-474.921,-42.621 -952.886,-70.02 -1427.81,-39.577c-593.651,36.533 -1187.3,136.997 -1780.95,197.884c-70.02,6.089 -182.661,-24.355 -207.016,-73.065c-36.533,-66.976 -39.577,-185.706 -0,-246.593c112.641,-170.485 228.327,-350.102 386.634,-474.921c246.594,-197.884 243.549,-450.566 188.751,-700.204c-194.84,-885.911 -307.481,-1796.18 -669.761,-2633.38c-295.303,-681.938 -663.671,-1330.39 -1010.73,-1987.97c-88.287,-164.395 -258.771,-200.928 -432.3,-158.307c-136.997,33.488 -298.348,337.925 -264.86,490.143c146.13,651.494 264.86,1312.12 456.655,1951.44c210.061,703.248 581.474,1333.43 1053.35,1902.73c146.13,176.573 277.038,362.28 392.724,557.119c36.532,63.932 33.488,197.884 -9.133,252.683c-79.154,100.464 -179.618,36.532 -252.683,-42.622c-453.61,-484.054 -797.624,-1041.17 -1083.79,-1634.82c-264.86,-557.119 -502.32,-1123.37 -614.962,-1735.29c-91.331,-484.055 -176.573,-968.109 -258.771,-1452.16c-9.133,-79.154 3.044,-158.307 42.621,-228.327c152.218,-283.126 423.167,-423.167 715.426,-499.276c85.242,-21.311 246.594,76.109 304.437,164.395c630.183,943.754 1208.61,1914.91 1485.65,3026.1c143.085,575.385 264.86,1156.86 392.723,1735.29c60.888,270.949 191.795,316.615 404.901,118.731c471.877,-432.3 986.375,-812.846 1540.45,-1135.55c648.45,-380.545 1333.43,-678.893 2088.43,-782.402c289.215,-39.576 505.365,-173.529 675.849,-420.122c435.345,-624.095 998.552,-1102.06 1768.78,-1223.84c337.924,-54.799 703.248,-15.222 1041.17,51.754c362.279,73.065 703.248,243.549 1062.48,347.058c173.528,48.71 362.279,39.576 544.941,54.798c79.154,6.089 164.396,-15.222 237.461,6.089c73.064,21.311 127.863,88.287 191.795,133.952c-45.666,57.843 -82.198,146.13 -143.086,170.485c-380.545,158.307 -706.292,389.678 -916.354,742.825c-234.416,395.767 -359.235,837.2 -450.566,1287.77c-179.617,873.733 -337.924,1762.69 -858.511,2517.69c-602.784,870.689 -1400.41,1464.34 -2465.94,1659.18c-115.686,21.311 -228.328,51.755 -340.969,85.243c-164.396,51.754 -197.884,270.948 -57.843,386.634c140.041,115.686 286.17,213.106 426.211,325.747c170.485,133.952 362.28,252.683 505.365,417.078c325.747,365.324 715.426,447.522 1169.04,340.969c88.287,-21.31 182.662,-30.443 273.993,-24.355c292.259,24.355 340.969,103.509 264.86,380.546c-12.177,42.621 -15.222,91.331 -9.133,136.997c30.444,222.238 12.177,237.46 -200.928,216.15c-493.188,-51.755 -989.419,-94.376 -1482.61,-143.086c-213.106,-15.221 -420.123,-45.665 -688.027,-76.109Zm2475.07,-8314.16c158.307,-6.088 289.215,115.686 295.304,273.993l-0,3.045c6.089,152.218 -140.041,313.569 -295.304,316.614c-158.307,3.044 -283.126,-130.908 -286.17,-304.437c3.044,-197.884 88.287,-286.17 286.17,-289.215Z" style="fill:#fff;fill-rule:nonzero;"/></svg>