<?xml version="1.0" encoding="UTF-8" standalone="no"?>
<!DOCTYPE svg PUBLIC "-//W3C//DTD SVG 1.1//EN" "http://www.w3.org/Graphics/SVG/1.1/DTD/svg11.dtd">
<svg width="100%" height="100%" viewBox="0 0 5000 4096" version="1.1" xmlns="http://www.w3.org/2000/svg" xmlns:xlink="http://www.w3.org/1999/xlink" xml:space="preserve" xmlns:serif="http://www.serif.com/" style="fill-rule:evenodd;clip-rule:evenodd;stroke-linejoin:round;stroke-miterlimit:2;">
    <g transform="matrix(1,0,0,1,-1500,-200)">
        <path id="white" d="M4723.76,4295.36L4723.76,4190.59L5009.48,4190.59C5149.17,4190.59 5263.45,4180.28 5352.35,4159.64C5441.24,4139.01 5511.08,4107.26 5561.88,4064.4C5612.67,4021.54 5647.59,3967.57 5666.64,3902.49C5685.69,3837.41 5695.21,3762.01 5695.21,3676.29C5695.21,3596.93 5692.83,3519.94 5688.07,3445.33C5683.31,3370.73 5678.55,3296.12 5673.78,3221.52C5669.02,3146.91 5665.06,3070.72 5661.88,2992.94C5658.7,2915.16 5657.12,2831.82 5657.12,2742.93C5657.12,2612.77 5682.52,2506.42 5733.31,2423.88C5784.11,2341.33 5888.87,2285.78 6047.61,2257.2L6047.61,2238.16C5888.87,2209.58 5784.11,2154.03 5733.31,2071.48C5682.52,1988.94 5657.12,1882.59 5657.12,1752.43C5657.12,1596.87 5663.47,1438.93 5676.17,1278.6C5688.86,1118.28 5695.21,965.102 5695.21,819.066C5695.21,733.349 5685.69,657.95 5666.64,592.869C5647.59,527.787 5612.67,473.818 5561.88,430.959C5511.08,388.101 5441.24,356.354 5352.35,335.718C5263.45,315.083 5149.17,304.765 5009.48,304.765L4723.76,304.765L4723.76,200L4952.34,200C5098.37,200 5226.15,209.524 5335.68,228.572C5445.21,247.62 5535.69,279.367 5607.12,323.813C5678.55,368.259 5732.52,429.372 5769.03,507.152C5805.53,584.932 5823.79,682.554 5823.79,800.018C5823.79,961.927 5817.44,1131.77 5804.74,1309.56C5792.04,1487.34 5785.69,1652.42 5785.69,1804.81C5785.69,1852.43 5795.22,1900.05 5814.27,1947.67C5833.31,1995.29 5869.03,2036.56 5921.41,2071.48C5973.79,2106.41 6046.02,2134.98 6138.09,2157.2C6230.15,2179.42 6350.79,2190.53 6500,2190.53L6500,2304.82C6350.79,2304.82 6230.15,2315.94 6138.09,2338.16C6046.02,2360.38 5973.79,2388.95 5921.41,2423.88C5869.03,2458.8 5833.31,2500.07 5814.27,2547.69C5795.22,2595.31 5785.69,2642.93 5785.69,2690.55C5785.69,2861.98 5792.04,3027.86 5804.74,3188.18C5817.44,3348.51 5823.79,3517.56 5823.79,3695.34C5823.79,3812.81 5805.53,3910.43 5769.03,3988.21C5732.52,4065.99 5678.55,4127.1 5607.12,4171.55C5535.69,4215.99 5445.21,4247.74 5335.68,4266.79C5226.15,4285.84 5098.37,4295.36 4952.34,4295.36L4723.76,4295.36ZM3052.43,4295.36C2906.39,4295.36 2778.61,4285.84 2669.08,4266.79C2559.55,4247.74 2468.28,4215.99 2395.26,4171.55C2322.25,4127.1 2267.48,4065.99 2230.97,3988.21C2194.47,3910.43 2176.21,3812.81 2176.21,3695.34C2176.21,3517.56 2183.35,3348.51 2197.64,3188.18C2211.93,3027.86 2219.07,2861.98 2219.07,2690.55C2219.07,2642.93 2209.55,2595.31 2190.5,2547.69C2171.45,2500.07 2135.73,2458.8 2083.35,2423.88C2030.97,2388.95 1957.95,2360.38 1864.3,2338.16C1770.64,2315.94 1649.21,2304.82 1500,2304.82L1500,2190.53C1649.21,2190.53 1770.64,2179.42 1864.3,2157.2C1957.95,2134.98 2030.97,2106.41 2083.35,2071.48C2135.73,2036.56 2171.45,1995.29 2190.5,1947.67C2209.55,1900.05 2219.07,1852.43 2219.07,1804.81C2219.07,1652.42 2211.93,1487.34 2197.64,1309.56C2183.35,1131.77 2176.21,961.927 2176.21,800.018C2176.21,682.554 2194.47,584.932 2230.97,507.152C2267.48,429.372 2322.25,368.259 2395.26,323.813C2468.28,279.367 2559.55,247.62 2669.08,228.572C2778.61,209.524 2906.39,200 3052.43,200L3281.01,200L3281.01,304.765L2995.28,304.765C2855.6,304.765 2742.1,315.083 2654.8,335.718C2567.49,356.354 2498.44,388.101 2447.65,430.959C2396.85,473.818 2362.72,527.787 2345.26,592.869C2327.8,657.95 2319.07,733.349 2319.07,819.066C2319.07,965.102 2324.63,1118.28 2335.74,1278.6C2346.85,1438.93 2352.41,1596.87 2352.41,1752.43C2352.41,1885.76 2326.22,1992.91 2273.83,2073.87C2221.45,2154.82 2115.89,2209.58 1957.16,2238.16L1957.16,2257.2C2115.89,2285.78 2221.45,2340.54 2273.83,2421.49C2326.22,2502.45 2352.41,2609.6 2352.41,2742.93C2352.41,2831.82 2350.82,2915.16 2347.64,2992.94C2344.47,3070.72 2340.5,3146.91 2335.74,3221.52C2330.98,3296.12 2327.01,3370.73 2323.83,3445.33C2320.66,3519.94 2319.07,3596.93 2319.07,3676.29C2319.07,3762.01 2327.8,3837.41 2345.26,3902.49C2362.72,3967.57 2396.85,4021.54 2447.65,4064.4C2498.44,4107.26 2567.49,4139.01 2654.8,4159.64C2742.1,4180.28 2855.6,4190.59 2995.28,4190.59L3281.01,4190.59L3281.01,4295.36L3052.43,4295.36ZM4306.12,3350.72C4346.31,3334.64 4374.8,3327.34 4397.45,3312.72C4435.45,3288.61 4441.29,3249.89 4409.87,3219.93C4285.66,3103.03 4156.34,2993.43 3994.87,2929.86C3968.56,2920.37 3939.34,2917.44 3911.57,2921.1C3863.35,2927.67 3829.01,2971.51 3835.58,3020.46C3837.05,3031.42 3840.7,3042.38 3845.81,3051.88C3880.15,3117.64 3921.07,3179.01 3969.29,3235.27C4022.63,3298.11 4084.74,3353.64 4144.65,3410.63C4184.83,3449.35 4230.86,3464.7 4290.05,3456.66C4393.07,3442.78 4498.28,3445.7 4600.57,3464.7C4614.45,3466.89 4628.34,3472 4640.03,3480.04C4650.26,3488.08 4656.1,3501.96 4664.14,3512.92C4651.72,3520.23 4640.03,3532.65 4626.15,3534.84C4556,3543.61 4551.62,3551.64 4586.69,3610.83C4594.73,3624.71 4597.65,3641.51 4593.27,3656.86C4591.07,3663.43 4564.77,3668.55 4552.35,3664.89C4330.23,3594.75 4102.27,3597.68 3873.58,3611.56C3847.28,3613.02 3820.24,3596.95 3793.94,3588.91C3818.05,3572.83 3840.7,3550.91 3867,3540.68C3899.15,3528.26 3935.68,3528.26 3968.56,3518.77C4016.79,3504.15 4034.32,3454.47 4006.56,3412.82C3991.21,3388.71 3972.95,3366.06 3953.95,3345.6C3801.97,3185.59 3650,3026.31 3496.56,2867.03C3414.73,2781.54 3332.9,2697.52 3249.61,2614.22C3226.95,2591.57 3216.73,2564.54 3237.91,2544.81C3251.07,2532.39 3289.79,2528.01 3303.67,2538.24C3350.43,2573.31 3390.62,2615.68 3433,2655.87C3505.33,2723.82 3573.28,2796.89 3651.46,2856.8C3677.76,2877.26 3734.76,2877.99 3769.1,2865.57C3888.19,2820.27 4013.86,2815.88 4136.61,2796.16C4340.46,2762.55 4541.39,2713.59 4703.59,2580.61C4822.69,2483.44 4916.94,2359.23 4956.4,2203.6C4987.09,2080.12 5009.73,1954.45 5044.81,1831.7C5078.42,1712.6 5105.45,1590.59 5177.05,1484.64C5184.36,1474.41 5190.94,1463.45 5198.97,1453.95C5257.43,1381.62 5245.73,1355.32 5155.86,1320.98C5068.92,1287.37 4983.43,1258.14 4889.18,1268.37C4748.16,1284.44 4607.88,1310.75 4499.74,1408.65C4451.52,1452.49 4413.53,1513.87 4386.49,1573.78C4358.73,1635.89 4317.08,1672.42 4254.98,1676.07C3996.33,1691.42 3785.17,1818.55 3577.67,1952.99C3434.46,2045.78 3301.48,2151.72 3184.58,2276.66C3158.27,2305.16 3129.78,2331.46 3096.17,2365.07C3166.31,2354.11 3230.61,2342.42 3294.91,2335.12C3389.16,2324.16 3483.41,2311.74 3577.67,2309.54C3709.91,2307.35 3841.43,2315.39 3973.68,2317.58C4107.39,2319.77 4235.98,2287.62 4358.73,2240.13C4441.29,2207.98 4499.01,2141.49 4543.58,2064.78C4566.23,2026.05 4580.85,1982.21 4602.77,1942.03C4610.07,1928.14 4626.15,1920.11 4638.57,1909.15C4645.87,1923.03 4659.76,1936.91 4660.49,1950.8C4665.6,2046.51 4621.76,2124.69 4561.12,2193.37C4464.67,2302.24 4337.54,2357.04 4197.99,2381.88C4076.7,2403.07 3953.95,2414.76 3829.01,2403.8C3715.03,2393.57 3600.32,2386.99 3486.34,2394.3C3343.86,2403.07 3201.38,2427.18 3058.91,2441.79C3042.1,2443.25 3015.07,2435.95 3009.22,2424.26C3000.45,2408.18 2999.72,2379.69 3009.22,2365.07C3036.26,2324.16 3064.02,2281.05 3102.01,2251.09C3161.2,2203.6 3160.47,2142.96 3147.31,2083.04C3100.55,1870.42 3073.52,1651.96 2986.57,1451.03C2915.7,1287.37 2827.29,1131.74 2744,973.919C2722.81,934.464 2681.89,925.697 2640.24,935.926C2607.37,943.963 2568.64,1017.03 2576.68,1053.56C2611.75,1209.92 2640.24,1368.47 2686.28,1521.9C2736.69,1690.68 2825.83,1841.93 2939.08,1978.56C2974.15,2020.94 3005.57,2065.51 3033.33,2112.27C3042.1,2127.61 3041.37,2159.76 3031.14,2172.91C3012.14,2197.02 2988.03,2181.68 2970.5,2162.68C2861.63,2046.51 2779.07,1912.8 2710.39,1770.33C2646.82,1636.62 2589.83,1500.72 2562.8,1353.86C2540.88,1237.68 2520.42,1121.51 2500.69,1005.34C2498.5,986.34 2501.42,967.344 2510.92,950.539C2547.45,882.588 2612.48,848.979 2682.62,830.712C2703.08,825.598 2741.8,848.979 2755.69,870.167C2906.93,1096.67 3045.75,1329.75 3112.24,1596.43C3146.58,1734.52 3175.81,1874.08 3206.5,2012.9C3221.11,2077.93 3252.53,2088.89 3303.67,2041.4C3416.92,1937.64 3540.4,1846.31 3673.38,1768.86C3829.01,1677.53 3993.4,1605.93 4174.61,1581.09C4244.02,1571.59 4295.89,1539.44 4336.81,1480.26C4441.29,1330.48 4576.46,1215.76 4761.32,1186.54C4842.42,1173.39 4930.1,1182.88 5011.2,1198.96C5098.14,1216.49 5179.98,1257.41 5266.19,1282.25C5307.84,1293.94 5353.14,1291.75 5396.98,1295.4C5415.98,1296.87 5436.43,1291.75 5453.97,1296.87C5471.51,1301.98 5484.66,1318.06 5500,1329.01C5489.04,1342.9 5480.27,1364.09 5465.66,1369.93C5374.33,1407.92 5296.15,1463.45 5245.73,1548.21C5189.48,1643.19 5159.52,1749.14 5137.6,1857.27C5094.49,2066.97 5056.5,2280.32 4931.56,2461.52C4786.89,2670.48 4595.46,2812.96 4339.73,2859.72C4311.97,2864.84 4284.93,2872.14 4257.9,2880.18C4218.44,2892.6 4210.41,2945.21 4244.02,2972.97C4277.63,3000.74 4312.7,3024.12 4346.31,3051.15C4387.22,3083.3 4433.25,3111.8 4467.6,3151.25C4545.77,3238.93 4639.3,3258.66 4748.16,3233.08C4769.35,3227.97 4792,3225.78 4813.92,3227.24C4884.06,3233.08 4895.75,3252.08 4877.49,3318.57C4874.57,3328.8 4873.84,3340.49 4875.3,3351.45C4882.6,3404.78 4878.22,3408.44 4827.07,3403.32C4708.71,3390.9 4589.61,3380.67 4471.25,3368.98C4420.1,3365.33 4370.42,3358.02 4306.12,3350.72ZM4900.14,1355.32C4938.13,1353.86 4969.55,1383.08 4971.01,1421.08L4971.01,1421.81C4972.47,1458.34 4937.4,1497.06 4900.14,1497.79C4862.14,1498.53 4832.19,1466.38 4831.46,1424.73C4832.19,1377.24 4852.65,1356.05 4900.14,1355.32Z" style="fill:white;fill-rule:nonzero;"/>
    </g>
</svg>
