<?xml version="1.0" standalone="no"?>
<!DOCTYPE svg PUBLIC "-//W3C//DTD SVG 20010904//EN"
 "http://www.w3.org/TR/2001/REC-SVG-20010904/DTD/svg10.dtd">
<svg version="1.0" xmlns="http://www.w3.org/2000/svg"
 width="5000.000000pt" height="5000.000000pt" viewBox="0 0 5000.000000 5000.000000"
 preserveAspectRatio="xMidYMid meet">
<metadata>
Created by potrace 1.14, written by Peter Selinger 2001-2017
</metadata>
<g transform="translate(0.000000,5000.000000) scale(0.100000,-0.100000)"
fill="#000000" stroke="none">
<path d="M14828 45465 c-2 -2 -111 -6 -243 -10 -132 -4 -269 -8 -305 -10 -36
-2 -128 -6 -205 -9 -77 -4 -171 -9 -210 -11 -38 -3 -108 -7 -155 -10 -47 -3
-115 -8 -151 -11 -36 -2 -90 -6 -120 -8 -61 -5 -192 -15 -259 -22 -25 -2 -74
-6 -110 -9 -61 -5 -116 -10 -200 -20 -19 -2 -63 -7 -97 -10 -35 -4 -75 -8 -90
-10 -16 -2 -57 -7 -93 -10 -36 -4 -74 -9 -85 -11 -11 -2 -42 -6 -70 -9 -160
-18 -791 -114 -845 -130 -8 -2 -35 -7 -60 -10 -25 -3 -53 -8 -62 -11 -9 -3
-27 -7 -40 -9 -13 -3 -34 -7 -48 -10 -14 -3 -36 -7 -50 -10 -179 -34 -557
-129 -830 -210 -264 -78 -586 -196 -850 -312 -143 -63 -430 -205 -508 -252
-29 -17 -54 -31 -56 -31 -10 0 -201 -119 -326 -203 -68 -46 -318 -232 -330
-246 -3 -3 -36 -33 -75 -66 -98 -83 -346 -334 -431 -435 -159 -190 -347 -457
-446 -635 -25 -46 -181 -355 -201 -400 -77 -171 -168 -416 -226 -610 -54 -180
-136 -524 -156 -655 -2 -14 -13 -77 -24 -140 -35 -203 -68 -496 -86 -765 -25
-368 -25 -1575 0 -2290 2 -55 6 -194 10 -310 3 -115 8 -246 10 -290 2 -44 7
-163 10 -265 4 -102 9 -207 10 -235 1 -27 6 -115 9 -195 4 -80 9 -174 11 -210
2 -36 6 -114 9 -175 7 -121 13 -238 21 -360 3 -44 7 -120 10 -170 3 -49 7
-119 10 -155 2 -36 7 -103 10 -150 3 -47 8 -114 10 -150 3 -36 7 -99 10 -140
2 -41 6 -102 9 -135 9 -109 18 -229 21 -270 5 -71 17 -229 20 -265 2 -19 6
-75 10 -125 4 -49 8 -110 10 -135 2 -25 6 -83 10 -130 3 -47 8 -110 10 -140 3
-30 7 -91 10 -135 3 -44 8 -107 10 -140 3 -33 7 -96 10 -140 6 -95 13 -194 20
-290 2 -38 7 -115 10 -170 3 -55 8 -131 10 -170 2 -38 6 -108 9 -155 3 -47 8
-137 11 -200 3 -63 8 -153 10 -200 8 -144 13 -255 30 -655 44 -1053 55 -2407
20 -2617 -2 -13 -6 -41 -10 -63 -9 -61 -24 -157 -30 -185 -4 -21 -26 -123 -30
-140 -1 -3 -5 -21 -9 -40 -17 -79 -90 -321 -123 -410 -109 -298 -192 -455
-355 -678 -86 -117 -98 -130 -238 -273 -324 -329 -673 -561 -1223 -813 -44
-20 -84 -36 -91 -36 -7 0 -16 -4 -22 -9 -15 -14 -307 -125 -502 -190 -159 -53
-217 -71 -357 -111 -53 -15 -289 -80 -310 -85 -11 -2 -56 -14 -100 -25 -76
-20 -446 -102 -510 -114 -45 -9 -263 -45 -365 -61 -19 -3 -62 -10 -95 -15 -96
-15 -254 -36 -425 -55 -30 -3 -71 -8 -90 -10 -19 -2 -64 -7 -100 -10 -36 -3
-81 -8 -100 -10 -48 -5 -141 -14 -225 -20 -38 -3 -95 -7 -125 -10 -99 -8 -356
-23 -495 -30 -83 -4 -203 -9 -540 -20 -71 -2 -257 -5 -413 -6 l-282 -2 2 -571
3 -571 160 -1 c175 -2 722 -14 850 -19 118 -5 317 -14 420 -20 89 -5 152 -10
290 -20 201 -14 232 -16 255 -20 14 -2 57 -6 95 -10 39 -3 86 -8 105 -10 19
-1 67 -6 105 -10 39 -3 81 -8 95 -10 23 -3 71 -10 155 -20 17 -2 68 -9 115
-15 47 -7 99 -14 115 -15 17 -2 44 -6 60 -9 17 -3 48 -8 70 -11 22 -3 67 -11
100 -16 33 -6 71 -13 85 -15 14 -2 34 -5 45 -7 11 -3 40 -8 65 -12 25 -4 52
-9 60 -10 8 -2 71 -15 140 -29 69 -14 184 -40 255 -56 72 -17 137 -33 145 -35
8 -2 49 -12 90 -23 41 -12 118 -32 170 -46 360 -96 809 -253 1135 -399 284
-127 674 -355 845 -494 8 -6 53 -42 100 -79 118 -94 352 -330 439 -444 238
-309 383 -623 501 -1085 43 -168 60 -255 86 -425 3 -25 8 -53 10 -62 26 -142
26 -1247 -1 -2188 -6 -193 -15 -484 -20 -590 -3 -58 -7 -163 -10 -235 -3 -71
-8 -164 -10 -205 -3 -41 -7 -133 -10 -205 -4 -71 -8 -161 -11 -200 -2 -38 -6
-110 -9 -160 -6 -113 -14 -241 -20 -325 -2 -36 -7 -105 -10 -155 -3 -49 -8
-117 -10 -150 -3 -33 -7 -94 -10 -135 -6 -96 -13 -188 -20 -270 -3 -36 -8 -94
-10 -130 -12 -156 -21 -268 -30 -360 -2 -19 -6 -69 -10 -110 -3 -41 -8 -95
-10 -120 -3 -25 -7 -74 -10 -110 -3 -36 -7 -90 -10 -120 -12 -143 -16 -200
-20 -260 -2 -36 -7 -96 -10 -135 -8 -109 -14 -193 -20 -285 -3 -47 -8 -110
-10 -140 -2 -30 -7 -100 -10 -155 -3 -55 -8 -129 -10 -165 -2 -36 -6 -114 -10
-175 -3 -60 -8 -141 -10 -180 -2 -38 -7 -128 -10 -200 -3 -71 -7 -161 -10
-200 -4 -63 -8 -156 -20 -490 -2 -55 -7 -190 -10 -300 -4 -110 -8 -247 -10
-305 -25 -745 -25 -2076 0 -2415 8 -104 16 -201 20 -235 2 -19 6 -62 9 -95 6
-59 12 -117 22 -185 20 -145 27 -192 49 -320 133 -770 392 -1449 764 -1995
244 -360 552 -690 876 -939 55 -43 107 -83 115 -89 42 -34 240 -163 350 -229
186 -112 331 -189 555 -293 94 -43 113 -51 168 -74 12 -6 44 -19 71 -31 291
-128 818 -295 1256 -400 221 -52 588 -127 720 -146 19 -3 58 -9 85 -14 28 -5
68 -11 90 -14 22 -3 54 -8 70 -11 64 -11 92 -15 135 -20 25 -3 60 -8 79 -11
19 -3 53 -8 75 -10 23 -3 51 -7 62 -9 12 -2 48 -6 80 -10 33 -4 70 -9 84 -11
14 -2 52 -6 85 -9 33 -4 92 -10 130 -15 39 -5 100 -12 137 -15 37 -3 77 -8 90
-10 13 -2 59 -6 103 -10 44 -3 96 -8 115 -10 19 -2 76 -6 125 -10 92 -7 111
-8 270 -20 50 -4 110 -8 135 -10 25 -2 99 -7 165 -10 66 -4 149 -8 185 -10 36
-2 137 -7 225 -10 88 -4 205 -9 260 -12 55 -2 812 -7 1683 -10 l1582 -5 0 525
0 524 -1672 1 c-920 1 -1734 4 -1808 6 -74 3 -209 8 -300 11 -262 9 -524 24
-720 40 -25 2 -87 7 -138 10 -52 4 -102 8 -111 10 -10 2 -55 6 -102 10 -46 3
-95 8 -109 10 -14 2 -52 7 -85 10 -33 3 -71 8 -85 10 -14 2 -52 6 -85 10 -97
11 -176 22 -213 29 -15 3 -49 8 -77 11 -56 6 -269 41 -370 61 -45 8 -228 45
-245 49 -8 2 -37 8 -65 14 -27 6 -67 15 -87 21 -21 5 -55 15 -75 20 -21 6 -49
12 -63 15 -57 10 -465 131 -524 155 -11 5 -66 25 -121 45 -55 20 -114 42 -132
50 -17 8 -34 15 -38 15 -3 0 -31 11 -61 25 -30 14 -57 25 -59 25 -3 0 -71 31
-151 70 -361 172 -693 392 -944 625 -116 107 -279 280 -318 336 -9 13 -19 26
-22 29 -29 24 -193 265 -259 380 -176 309 -310 680 -397 1105 -20 95 -83 451
-88 495 -3 19 -10 73 -15 120 -6 47 -14 108 -17 135 -2 28 -7 66 -9 85 -9 69
-14 126 -20 215 -3 50 -8 108 -10 130 -26 253 -27 1654 0 2420 16 471 28 779
40 1000 2 50 7 153 11 230 7 176 11 263 19 395 3 58 8 141 10 185 4 96 17 315
30 540 3 50 7 122 9 160 5 77 15 233 21 335 3 36 7 112 10 170 3 58 8 130 10
160 2 30 7 105 10 165 4 61 8 134 10 163 2 29 6 115 10 190 3 75 8 155 10 177
2 22 6 108 10 190 3 83 8 177 10 210 2 33 7 116 10 185 3 69 7 175 10 235 11
229 15 324 20 455 3 74 7 178 10 230 4 87 13 406 20 675 22 848 22 1908 1
2210 -2 22 -7 87 -11 145 -4 58 -8 112 -10 121 -2 8 -6 47 -10 85 -4 38 -8 80
-10 94 -9 68 -25 179 -30 210 -1 8 -6 40 -10 70 -4 30 -9 64 -11 75 -2 11 -6
32 -9 47 -8 43 -46 228 -56 273 -5 22 -12 51 -15 65 -69 312 -206 700 -362
1020 -213 441 -453 752 -792 1029 -96 79 -417 301 -434 301 -3 0 -29 14 -58
31 -219 130 -629 307 -958 414 -108 34 -333 102 -372 111 -10 2 -26 6 -35 9
-99 26 -86 23 -305 73 -95 22 -211 48 -258 57 -47 9 -108 20 -137 26 l-51 10
-1 93 c-1 105 -7 98 85 112 183 28 611 130 898 215 246 73 541 179 704 255 29
13 55 24 57 24 22 0 380 189 500 263 622 386 981 828 1295 1597 84 205 174
492 225 720 14 63 29 126 32 140 11 45 30 140 37 185 17 106 37 224 40 245 3
14 8 48 11 75 4 28 8 61 10 75 2 14 6 61 10 105 4 44 9 88 10 97 2 9 7 61 10
115 4 54 9 116 11 138 10 117 17 472 17 790 -1 681 -24 1777 -48 2335 -3 74
-8 189 -10 255 -5 131 -12 309 -20 450 -3 50 -7 140 -10 200 -5 110 -11 207
-20 373 -3 48 -7 130 -10 182 -3 52 -8 129 -10 170 -3 41 -7 113 -10 160 -3
47 -8 108 -10 135 -3 28 -7 100 -10 160 -3 61 -8 133 -10 160 -2 28 -7 95 -10
150 -3 55 -8 127 -10 160 -2 33 -7 103 -11 155 -3 52 -7 116 -9 142 -2 26 -6
109 -10 185 -3 76 -8 152 -10 168 -2 17 -7 95 -10 174 -4 79 -8 172 -10 205
-2 34 -6 129 -10 211 -4 83 -8 177 -10 210 -2 33 -7 137 -10 230 -3 94 -8 208
-10 255 -2 47 -6 180 -10 295 -4 116 -8 260 -10 320 -27 838 -27 2098 0 2445
6 83 17 228 20 260 2 19 6 58 9 85 3 28 8 72 11 99 4 46 11 101 20 156 2 14 7
50 10 80 3 30 8 62 10 70 2 8 7 35 10 60 3 25 8 52 10 60 2 8 7 35 10 60 5 35
49 249 80 394 75 339 214 706 370 973 55 93 188 296 210 319 5 6 26 30 45 54
268 335 579 598 994 840 290 168 726 349 1146 474 155 46 540 138 720 172 14
2 36 7 50 9 32 6 53 10 170 30 117 20 134 22 190 30 25 3 56 8 70 10 14 3 45
7 70 10 25 3 63 8 85 11 22 3 51 7 65 9 14 2 43 6 65 9 22 3 67 8 100 11 33 3
76 8 95 10 19 2 67 7 105 10 39 3 86 8 105 10 134 12 252 22 375 30 55 3 125
8 155 10 48 4 115 7 420 20 291 13 927 18 2253 18 l1547 0 0 524 0 524 -1489
-2 c-820 -1 -1491 -3 -1493 -4z"/>
<path d="M32239 45453 c-1 -23 -1 -1004 0 -1019 1 -8 440 -11 1549 -11 1360
-1 1932 -5 2257 -18 270 -11 551 -27 710 -40 28 -2 86 -7 130 -10 44 -3 96 -8
115 -10 35 -4 109 -11 205 -20 46 -4 68 -6 175 -19 19 -3 60 -8 90 -11 55 -7
72 -9 145 -19 22 -3 60 -8 85 -11 41 -6 414 -67 485 -80 17 -4 73 -15 126 -26
52 -11 104 -21 115 -23 10 -3 69 -16 129 -31 61 -14 117 -28 125 -30 200 -45
700 -210 913 -301 121 -52 443 -213 537 -269 400 -239 696 -500 1005 -887 30
-37 158 -232 203 -310 146 -248 283 -582 357 -868 9 -36 19 -72 21 -80 12 -47
64 -270 69 -295 2 -16 7 -41 10 -55 13 -60 25 -123 31 -167 3 -26 8 -50 9 -53
2 -3 6 -26 9 -50 4 -25 9 -56 11 -70 5 -27 30 -222 39 -305 3 -27 8 -70 11
-95 2 -25 7 -75 10 -110 3 -36 7 -87 10 -115 32 -352 27 -1756 -9 -2695 -3
-91 -9 -223 -11 -295 -3 -71 -7 -175 -10 -230 -3 -55 -7 -147 -10 -205 -2 -58
-7 -148 -10 -200 -3 -52 -7 -140 -10 -195 -3 -55 -7 -131 -10 -170 -2 -38 -7
-118 -10 -177 -3 -58 -7 -126 -10 -150 -2 -23 -7 -90 -10 -148 -13 -211 -23
-366 -40 -575 -8 -106 -14 -192 -20 -270 -7 -98 -15 -210 -20 -275 -2 -30 -7
-89 -10 -130 -3 -41 -7 -100 -9 -130 -3 -30 -7 -95 -10 -145 -4 -49 -9 -117
-11 -150 -3 -33 -7 -105 -10 -160 -3 -55 -8 -129 -11 -165 -3 -36 -7 -103 -9
-150 -4 -78 -8 -159 -20 -360 -3 -41 -7 -131 -10 -200 -6 -121 -7 -156 -20
-435 -4 -71 -8 -179 -10 -240 -13 -373 -17 -501 -20 -590 -26 -978 -26 -2073
0 -2335 2 -19 6 -69 10 -110 3 -41 8 -91 10 -110 12 -114 16 -148 20 -175 3
-16 7 -48 10 -70 3 -22 7 -53 10 -70 3 -16 7 -48 10 -70 3 -22 8 -49 10 -61 3
-12 7 -39 11 -60 3 -21 12 -73 20 -114 9 -41 18 -88 21 -105 3 -16 27 -116 53
-221 77 -302 159 -546 285 -839 23 -53 136 -280 165 -330 12 -22 34 -60 48
-85 115 -206 250 -382 431 -560 258 -254 585 -476 971 -657 74 -35 144 -68
155 -72 11 -5 48 -21 81 -35 34 -14 65 -26 68 -26 4 0 26 -8 49 -19 46 -20
292 -107 397 -139 158 -48 216 -65 400 -111 206 -52 280 -69 565 -126 17 -3
37 -8 45 -10 8 -2 20 -4 25 -4 6 -1 10 -40 11 -96 0 -52 0 -95 0 -95 -1 0 -48
-9 -106 -21 -58 -11 -116 -22 -130 -25 -14 -2 -65 -13 -115 -24 -49 -11 -99
-22 -110 -24 -89 -17 -498 -129 -670 -184 -105 -34 -351 -125 -412 -153 -24
-10 -45 -19 -48 -19 -29 0 -447 -211 -584 -295 -643 -394 -976 -803 -1313
-1613 -6 -15 -12 -29 -13 -32 -1 -3 -4 -12 -8 -20 -60 -154 -183 -558 -211
-696 -3 -10 -9 -39 -15 -64 -5 -25 -12 -56 -15 -70 -2 -14 -10 -50 -16 -80 -6
-30 -13 -70 -16 -89 -3 -18 -8 -43 -10 -55 -8 -34 -51 -335 -59 -406 -44 -395
-50 -557 -49 -1315 1 -588 4 -862 19 -1480 5 -223 17 -539 30 -830 3 -60 7
-164 10 -230 5 -141 13 -304 20 -430 2 -49 7 -144 10 -210 3 -66 7 -156 10
-200 3 -44 7 -125 10 -180 8 -154 22 -405 30 -520 4 -59 10 -158 20 -340 3
-49 7 -117 10 -150 2 -33 7 -103 10 -155 3 -52 7 -117 9 -145 2 -27 7 -104 10
-170 4 -66 9 -136 11 -155 2 -19 7 -89 10 -155 3 -66 8 -136 10 -155 2 -19 6
-89 10 -155 3 -66 8 -142 10 -170 3 -27 7 -90 10 -140 3 -49 7 -119 10 -155 2
-36 7 -110 10 -165 3 -55 8 -125 10 -155 2 -30 7 -98 10 -150 3 -52 7 -124 10
-160 2 -36 6 -117 10 -180 3 -63 8 -151 10 -195 10 -170 20 -423 31 -770 10
-311 11 -1496 1 -1670 -18 -316 -50 -635 -82 -825 -2 -14 -9 -56 -15 -95 -17
-111 -20 -129 -26 -146 -2 -9 -7 -32 -9 -50 -4 -27 -33 -165 -70 -324 -121
-522 -355 -1029 -642 -1385 -153 -191 -393 -430 -562 -560 -116 -90 -297 -215
-351 -244 -14 -7 -52 -30 -85 -50 -87 -54 -370 -194 -515 -254 -499 -207
-1027 -350 -1690 -456 -118 -19 -240 -38 -270 -41 -30 -3 -66 -8 -80 -10 -42
-7 -103 -15 -155 -20 -28 -2 -64 -6 -80 -9 -17 -3 -61 -8 -100 -11 -38 -3 -88
-7 -110 -10 -55 -6 -137 -14 -220 -20 -38 -3 -90 -8 -115 -10 -25 -3 -94 -7
-155 -11 -60 -3 -130 -7 -155 -9 -25 -2 -115 -7 -200 -11 -85 -3 -184 -8 -220
-10 -225 -11 -965 -16 -2284 -18 l-1509 -1 -1 -524 -1 -523 1585 6 c872 3
1623 7 1670 9 47 2 162 7 255 11 207 9 303 14 415 21 47 2 126 7 175 10 109 7
211 14 285 20 30 3 87 7 125 10 65 5 91 7 228 20 28 3 79 7 112 10 33 3 76 7
95 10 19 2 59 7 88 10 28 3 76 8 105 11 28 4 63 8 77 9 90 10 147 17 160 20 8
2 47 7 85 11 67 6 79 8 135 18 14 3 50 8 80 11 30 4 136 20 235 37 99 16 196
31 215 34 142 18 834 172 965 214 17 6 71 22 120 36 888 254 1649 644 2200
1128 191 168 481 485 593 648 18 25 38 52 45 60 14 15 165 246 191 293 9 17
35 62 57 100 69 120 193 375 243 500 27 66 52 129 57 140 44 104 165 501 204
670 36 159 72 336 80 397 2 15 8 51 14 80 6 29 15 91 21 138 14 110 18 137 24
181 3 20 8 62 11 95 3 32 8 73 10 89 2 17 7 77 11 135 3 58 8 113 10 123 24
132 24 1632 -1 2487 -17 610 -27 882 -40 1170 -3 52 -7 151 -10 220 -3 69 -7
163 -10 210 -2 47 -7 132 -10 190 -3 58 -7 139 -10 180 -2 41 -7 122 -10 180
-4 58 -8 130 -10 160 -8 126 -17 259 -20 310 -2 30 -6 91 -9 135 -4 44 -9 114
-12 155 -3 41 -7 100 -10 130 -2 30 -7 91 -9 135 -3 44 -8 106 -10 138 -3 31
-7 85 -10 120 -2 34 -7 91 -10 127 -2 36 -7 97 -10 135 -2 39 -7 106 -10 150
-4 44 -8 112 -10 150 -4 64 -8 124 -20 315 -3 36 -7 108 -10 160 -3 52 -8 131
-10 175 -3 44 -7 130 -10 190 -3 61 -7 146 -10 190 -3 44 -7 136 -10 205 -2
69 -7 172 -10 230 -12 232 -30 807 -40 1225 -16 700 -22 1676 -11 1790 3 33 8
92 12 130 8 103 43 318 70 435 9 36 17 73 19 82 11 51 59 216 91 313 148 450
320 733 633 1045 151 151 167 165 296 266 250 196 556 377 897 530 137 61 151
67 233 99 39 15 84 33 100 40 112 47 475 168 695 230 157 45 373 103 450 120
133 30 383 84 410 89 19 3 80 14 135 25 55 10 118 22 140 25 51 6 97 13 210
31 50 8 131 19 180 25 50 6 101 13 115 15 14 2 52 6 85 10 33 3 71 8 85 10 14
2 61 6 105 10 44 3 91 8 105 10 30 5 140 14 230 20 36 3 90 7 120 10 94 9 165
13 505 31 66 3 149 7 185 9 88 4 699 17 883 18 l147 1 0 571 0 571 -267 3
c-362 3 -697 12 -963 26 -202 11 -310 17 -360 21 -30 2 -91 6 -136 9 -44 3
-100 8 -125 10 -24 3 -78 7 -119 11 -41 3 -91 7 -110 9 -19 2 -62 6 -95 10
-72 7 -141 15 -175 20 -14 2 -56 6 -95 10 -38 4 -79 9 -89 11 -11 2 -42 6 -70
10 -28 3 -60 7 -71 9 -11 1 -69 10 -130 19 -60 9 -123 18 -140 21 -16 3 -43 7
-60 10 -16 3 -41 7 -55 10 -14 3 -38 8 -55 10 -41 7 -125 23 -155 30 -14 2
-61 12 -105 21 -122 24 -463 108 -625 154 -80 22 -167 47 -195 55 -134 37
-493 162 -675 233 -367 145 -788 369 -1026 546 -23 17 -55 40 -70 51 -50 36
-208 167 -268 224 -292 276 -486 553 -629 901 -102 246 -209 645 -242 894 -34
258 -35 285 -35 771 2 778 21 1612 55 2375 2 47 6 146 10 220 3 74 8 177 10
228 10 196 15 291 20 397 3 61 8 144 10 185 5 80 13 205 20 335 7 129 14 245
20 325 3 41 7 113 10 160 3 47 8 110 10 140 3 30 7 98 10 150 3 52 8 124 10
160 3 36 7 99 10 140 3 41 7 107 10 145 2 39 7 108 10 155 3 47 8 110 10 140
4 51 13 196 20 335 2 33 6 103 9 155 9 146 22 381 31 565 3 61 8 148 10 195 2
47 7 144 10 215 3 72 7 171 10 220 2 50 7 158 10 240 3 83 8 200 10 260 2 61
7 205 10 320 3 116 8 275 10 355 26 889 26 1987 0 2370 -15 216 -39 448 -61
595 -5 28 -9 57 -9 65 -1 8 -4 31 -8 50 -4 19 -9 51 -11 70 -3 19 -13 73 -22
120 -9 47 -18 96 -21 110 -2 14 -16 77 -30 140 -14 63 -26 119 -28 125 -26
128 -178 608 -225 710 -5 11 -30 70 -55 130 -94 220 -254 514 -397 728 -59 89
-217 301 -255 342 -10 11 -45 52 -78 90 -131 152 -412 419 -555 525 -18 14
-54 41 -79 60 -25 19 -66 49 -91 65 -25 16 -47 33 -50 36 -12 16 -291 186
-427 261 -317 173 -680 330 -1077 462 -297 100 -799 232 -1061 280 -71 13 -94
18 -160 31 -136 28 -574 99 -685 111 -25 3 -52 7 -60 9 -8 2 -42 7 -75 10 -33
4 -67 8 -75 10 -8 3 -46 7 -83 10 -37 4 -77 8 -87 10 -10 2 -47 7 -82 10 -35
4 -76 9 -93 10 -16 2 -66 7 -110 10 -44 4 -88 9 -99 11 -10 2 -51 6 -90 10
-39 3 -87 8 -106 9 -19 2 -75 7 -125 10 -49 3 -103 8 -120 10 -16 2 -82 7
-145 10 -63 4 -131 9 -150 10 -19 2 -93 7 -165 10 -71 4 -155 8 -185 10 -30 2
-131 7 -225 11 -93 3 -210 8 -260 11 -49 2 -802 7 -1672 10 -1532 5 -1583 4
-1584 -14z"/>
<path d="M11770 39149 c-380 -116 -571 -192 -800 -320 -204 -114 -448 -311
-595 -479 -164 -189 -303 -423 -346 -585 -27 -101 -33 -286 -13 -399 7 -43 16
-95 19 -115 5 -34 7 -47 19 -111 3 -14 8 -41 10 -60 3 -19 8 -46 11 -60 3 -14
8 -41 11 -60 2 -19 9 -57 14 -85 9 -47 16 -91 26 -160 3 -16 7 -40 10 -53 2
-13 11 -62 20 -110 8 -48 17 -100 20 -117 55 -317 67 -385 78 -440 2 -11 7
-40 11 -65 4 -25 9 -54 11 -65 3 -11 7 -36 10 -55 2 -19 9 -57 15 -85 5 -27
11 -63 14 -80 2 -16 8 -55 14 -85 6 -30 13 -71 16 -90 3 -19 12 -69 20 -110 8
-41 23 -124 34 -185 11 -60 31 -171 45 -245 14 -74 27 -148 30 -165 2 -16 10
-57 16 -90 6 -33 24 -130 40 -215 16 -85 31 -166 34 -180 4 -26 32 -176 40
-220 3 -14 10 -52 16 -85 126 -670 277 -1232 518 -1920 77 -221 245 -663 289
-763 8 -17 34 -80 58 -140 49 -122 135 -326 183 -432 141 -317 220 -492 292
-645 26 -55 57 -122 70 -150 47 -103 352 -715 421 -845 283 -535 584 -1042
879 -1485 127 -191 276 -408 312 -455 10 -14 62 -83 115 -155 94 -128 213
-285 223 -295 3 -3 61 -75 130 -160 121 -151 135 -168 180 -220 12 -14 41 -47
64 -74 61 -71 65 -77 136 -156 247 -278 326 -352 438 -413 72 -39 82 -42 157
-42 74 0 85 3 133 34 81 52 142 141 157 231 3 19 8 44 12 54 6 22 6 211 -1
241 -2 11 -7 34 -11 50 -18 80 -74 179 -293 515 -135 208 -432 620 -544 755
-17 20 -104 127 -162 199 -17 21 -63 77 -102 125 -95 117 -280 354 -329 421
-22 30 -42 57 -45 60 -16 13 -319 437 -387 540 -12 19 -27 40 -32 47 -11 12
-197 297 -248 378 -54 86 -300 498 -329 550 -15 28 -46 84 -69 125 -364 646
-749 1553 -955 2245 -91 304 -254 890 -275 985 -2 8 -27 107 -55 220 -29 113
-53 212 -55 220 -2 8 -13 56 -25 105 -12 50 -28 119 -36 155 -22 92 -29 123
-54 230 -12 52 -23 102 -25 110 -11 47 -80 359 -97 435 -10 50 -32 149 -48
220 -16 72 -36 166 -46 210 -9 44 -18 88 -20 98 -2 9 -6 27 -9 40 -2 12 -9 42
-15 67 -5 25 -12 56 -14 70 -3 14 -9 45 -15 70 -5 25 -18 88 -29 140 -19 91
-120 559 -127 590 -1 8 -10 51 -19 95 -9 44 -21 96 -26 115 -5 19 -11 46 -13
60 -3 14 -19 90 -37 170 -17 80 -34 156 -36 170 -3 14 -10 45 -15 70 -6 25
-12 54 -15 65 -22 115 -22 115 -10 237 14 129 79 319 163 478 147 276 342 471
498 496 16 2 59 11 95 18 89 19 335 14 415 -8 129 -35 249 -98 343 -181 63
-56 140 -169 232 -345 51 -96 109 -206 130 -245 20 -38 59 -110 85 -160 26
-49 76 -142 110 -205 58 -107 97 -181 190 -355 21 -38 52 -97 70 -130 18 -33
51 -94 72 -135 22 -41 59 -111 83 -155 152 -283 231 -433 343 -645 27 -52 78
-149 113 -215 162 -309 251 -484 473 -930 131 -264 251 -507 266 -540 15 -33
50 -107 78 -165 27 -58 60 -130 74 -160 107 -234 144 -315 205 -455 38 -88 78
-178 87 -200 161 -358 459 -1210 576 -1645 2 -8 11 -40 20 -70 22 -77 39 -137
74 -270 17 -63 35 -131 41 -150 13 -45 147 -597 154 -633 2 -15 7 -35 10 -45
3 -9 8 -28 10 -42 3 -14 10 -43 15 -65 5 -22 14 -62 20 -90 6 -27 13 -61 16
-75 3 -14 13 -59 21 -100 22 -103 37 -174 48 -220 3 -14 8 -36 10 -50 3 -14 7
-36 10 -50 3 -14 8 -36 11 -50 3 -14 7 -34 10 -45 4 -20 63 -311 71 -350 2
-11 15 -74 28 -140 27 -128 33 -161 42 -214 3 -18 7 -41 9 -50 7 -32 65 -324
70 -355 3 -17 8 -38 10 -46 2 -8 6 -26 9 -40 6 -37 38 -203 41 -220 9 -39 47
-228 51 -250 2 -14 7 -36 9 -50 3 -14 7 -34 9 -45 2 -11 19 -90 36 -175 18
-85 34 -164 36 -175 3 -16 42 -200 70 -330 2 -11 6 -31 9 -45 3 -14 7 -34 9
-45 14 -62 55 -264 59 -290 3 -16 10 -59 16 -95 69 -427 1 -813 -192 -1100
-83 -123 -163 -208 -327 -345 -212 -177 -409 -398 -619 -694 -77 -109 -292
-433 -309 -467 -64 -126 -60 -380 9 -530 55 -122 266 -206 494 -199 50 2 104
6 120 9 17 2 59 8 95 11 36 4 72 8 80 10 8 2 49 6 90 10 41 4 82 8 90 10 8 2
49 6 90 10 41 4 82 8 90 10 8 1 44 6 80 10 36 4 72 9 80 10 8 1 44 6 80 10 36
3 76 8 90 10 14 2 48 7 75 10 28 3 61 7 75 10 14 2 122 15 240 30 118 14 229
28 245 30 17 3 86 12 155 20 69 9 143 18 165 21 22 3 54 7 70 9 17 3 68 9 115
15 47 6 103 13 125 16 53 6 99 12 160 19 28 3 66 8 85 10 72 9 197 25 245 30
28 3 66 7 85 10 19 2 64 7 100 11 36 3 73 8 83 10 10 2 53 6 95 10 42 3 85 8
96 10 10 2 53 6 94 10 42 3 83 7 92 9 9 2 56 6 106 10 49 4 100 8 114 10 14 2
61 7 105 10 44 4 96 8 115 10 19 2 76 7 125 10 50 4 106 8 125 10 19 2 91 6
160 10 69 4 145 9 170 10 379 27 1448 27 1885 0 33 -2 119 -6 190 -10 72 -4
153 -8 180 -10 28 -2 100 -6 160 -10 61 -3 124 -8 140 -10 17 -2 75 -7 130
-10 55 -4 116 -8 135 -10 19 -2 73 -6 120 -10 47 -3 108 -8 135 -11 185 -16
251 -22 355 -29 52 -3 114 -8 136 -10 345 -30 1154 -25 1624 10 52 4 115 8
140 10 48 3 172 14 230 20 19 2 67 7 105 10 39 3 81 8 95 10 14 3 54 7 90 11
36 3 76 7 90 9 14 2 66 9 115 15 84 10 125 16 185 25 14 2 48 7 75 10 28 3 61
8 75 10 14 3 41 7 60 10 104 14 307 46 320 50 8 2 35 7 60 10 25 2 56 7 70 10
14 3 41 8 60 11 31 5 302 58 355 69 11 3 34 7 50 11 74 14 440 108 530 135
314 95 613 203 815 296 30 14 73 32 95 41 22 9 112 53 200 97 404 206 741 427
1070 701 147 123 452 422 575 564 45 52 92 106 104 121 29 33 215 275 242 314
11 16 40 59 65 95 24 36 69 106 98 155 30 50 64 106 76 125 18 30 131 257 155
315 66 152 136 363 166 500 19 85 44 225 49 277 4 35 9 74 12 88 2 14 6 115 8
225 5 263 10 248 -170 526 l-49 76 -106 -79 c-184 -139 -218 -178 -308 -356
-44 -87 -131 -269 -192 -407 -184 -410 -215 -477 -293 -620 -276 -504 -671
-1011 -1012 -1301 -38 -32 -72 -61 -75 -64 -42 -42 -248 -187 -367 -259 -254
-152 -550 -274 -1143 -469 -459 -151 -1013 -297 -1397 -368 -147 -27 -272 -48
-358 -60 -27 -3 -59 -8 -70 -10 -27 -5 -237 -32 -305 -39 -30 -3 -75 -7 -100
-10 -411 -43 -917 -48 -1720 -20 -58 2 -202 7 -320 10 -118 3 -260 8 -315 10
-55 2 -192 6 -305 10 -113 3 -259 8 -325 10 -807 27 -2080 27 -2405 1 -25 -3
-94 -7 -155 -11 -60 -3 -132 -8 -160 -10 -27 -3 -81 -7 -120 -10 -123 -10
-169 -15 -215 -19 -25 -3 -79 -8 -120 -12 -150 -13 -270 -25 -293 -30 -10 -2
-53 -6 -95 -9 -42 -4 -88 -8 -102 -11 -14 -2 -50 -6 -80 -9 -30 -3 -68 -8 -85
-10 -16 -2 -57 -7 -90 -10 -33 -3 -76 -8 -95 -10 -19 -3 -57 -7 -85 -10 -27
-3 -61 -8 -75 -10 -14 -2 -54 -6 -90 -10 -36 -3 -76 -8 -90 -10 -14 -3 -46 -7
-72 -10 -100 -11 -144 -16 -178 -20 -19 -2 -60 -7 -90 -10 -30 -4 -66 -8 -80
-10 -14 -2 -50 -7 -80 -10 -30 -3 -66 -8 -80 -10 -14 -2 -46 -6 -72 -9 -50 -6
-258 -35 -298 -41 -14 -2 -38 -6 -55 -9 -100 -15 -122 -19 -138 -22 -10 -2
-51 -8 -90 -13 -88 -12 -144 -21 -177 -27 -14 -2 -81 -13 -150 -24 -69 -12
-136 -23 -150 -25 -14 -2 -43 -7 -65 -10 -22 -3 -51 -8 -65 -10 -14 -3 -43 -7
-65 -10 -22 -3 -53 -9 -70 -12 -16 -3 -39 -7 -50 -9 -34 -4 -99 -15 -125 -19
-14 -3 -43 -8 -65 -11 -22 -3 -59 -9 -82 -14 -23 -4 -44 -5 -47 -3 -2 2 86 93
196 201 312 307 603 600 718 723 146 157 598 608 760 760 196 183 267 249 293
271 12 11 40 36 63 56 126 114 197 177 221 195 14 11 35 30 47 41 12 12 46 41
75 66 30 25 59 50 65 55 82 76 644 529 816 658 41 31 80 60 85 65 86 69 589
435 740 537 28 19 86 60 130 91 44 30 213 144 375 251 162 107 321 213 353
234 32 22 60 39 62 39 2 0 70 43 149 95 80 52 150 95 155 95 6 0 11 5 11 10 0
6 4 10 9 10 5 0 36 17 68 39 130 86 486 305 768 473 165 98 307 183 315 188 8
5 38 21 65 36 28 14 57 32 65 39 8 7 20 14 25 16 6 2 109 59 230 125 546 302
1042 545 1480 725 66 28 129 54 140 59 28 13 280 111 396 154 447 165 1086
345 1494 421 50 10 99 19 110 21 11 2 34 6 50 9 17 3 53 10 80 15 28 5 70 12
95 15 25 3 52 7 60 10 8 2 39 7 69 10 30 4 62 8 72 10 10 2 46 6 81 10 35 3
70 8 78 10 8 2 46 7 84 10 38 3 80 7 95 9 28 5 130 13 256 21 111 7 220 19
270 29 207 41 377 114 545 234 67 48 207 182 274 262 81 97 182 263 268 440
50 102 111 228 136 280 64 131 192 363 269 490 421 683 881 1130 1567 1521 72
41 376 190 466 229 420 179 1042 359 1505 435 17 3 44 8 60 12 17 3 39 7 50 8
11 2 47 8 80 14 98 17 417 65 510 76 90 11 142 18 225 30 14 2 57 7 95 11 39
3 79 8 90 10 128 25 614 24 805 -1 19 -3 55 -7 80 -10 44 -5 110 -15 140 -20
8 -1 49 -8 90 -15 262 -42 653 -151 1055 -292 164 -58 519 -190 560 -208 11
-5 74 -32 140 -60 219 -93 361 -177 456 -270 121 -117 160 -240 125 -395 -16
-74 -76 -201 -149 -315 -49 -76 -37 -60 -134 -185 -136 -177 -158 -207 -265
-366 -402 -595 -699 -1263 -974 -2194 -24 -82 -51 -170 -59 -195 -7 -25 -84
-299 -170 -610 -85 -311 -164 -594 -175 -630 -23 -79 -119 -440 -124 -466 -2
-11 -12 -48 -21 -84 -9 -36 -19 -72 -20 -80 -2 -8 -27 -109 -55 -225 -28 -115
-53 -221 -56 -235 -3 -14 -11 -50 -19 -80 -8 -30 -17 -70 -20 -89 -3 -19 -8
-37 -10 -41 -2 -4 -7 -20 -9 -36 -3 -16 -67 -301 -141 -634 -74 -333 -137
-614 -139 -625 -2 -11 -12 -51 -21 -90 -9 -38 -19 -81 -21 -95 -3 -14 -7 -33
-10 -42 -3 -10 -7 -28 -10 -40 -2 -13 -27 -120 -55 -238 -27 -118 -52 -224
-55 -235 -2 -11 -13 -58 -25 -105 -11 -47 -22 -92 -24 -100 -9 -45 -80 -295
-111 -392 -66 -209 -124 -363 -226 -608 -39 -93 -234 -491 -285 -580 -145
-254 -320 -526 -471 -730 -77 -105 -252 -329 -277 -356 -5 -6 -30 -35 -55 -64
-25 -29 -50 -58 -55 -64 -6 -6 -39 -45 -75 -86 -164 -189 -609 -619 -859 -830
-30 -25 -70 -59 -90 -76 -276 -235 -823 -609 -1151 -787 -216 -117 -302 -162
-430 -224 -80 -39 -170 -82 -200 -96 -30 -13 -77 -35 -105 -47 -93 -42 -259
-111 -415 -171 -85 -33 -164 -64 -175 -69 -62 -26 -455 -158 -625 -210 -58
-17 -132 -40 -165 -50 -224 -69 -922 -245 -1088 -274 -15 -3 -35 -7 -45 -10
-9 -3 -28 -7 -42 -10 -14 -2 -92 -18 -175 -35 -129 -27 -393 -78 -490 -96 -16
-3 -43 -7 -60 -10 -16 -3 -64 -12 -105 -20 -64 -12 -199 -36 -290 -50 -14 -2
-65 -11 -115 -19 -49 -9 -108 -18 -130 -21 -22 -3 -50 -7 -62 -9 -21 -4 -81
-13 -138 -21 -28 -3 -133 -18 -230 -31 -63 -9 -94 -13 -185 -24 -47 -6 -96
-13 -110 -15 -14 -2 -45 -6 -70 -9 -25 -3 -63 -8 -85 -11 -76 -10 -520 -66
-555 -71 -33 -4 -81 -10 -140 -19 -14 -3 -43 -7 -65 -10 -86 -11 -107 -14
-133 -19 -15 -3 -47 -8 -72 -11 -55 -7 -439 -74 -460 -80 -8 -2 -31 -7 -50
-10 -59 -10 -270 -56 -355 -76 -44 -11 -87 -22 -95 -24 -172 -41 -483 -134
-660 -198 -138 -50 -246 -83 -300 -92 -19 -3 -46 -8 -60 -10 -59 -10 -191 -19
-265 -19 -93 0 -264 12 -275 19 -4 3 -25 7 -46 11 -72 11 -219 63 -277 98 -65
39 -287 215 -492 390 -77 66 -142 122 -145 125 -3 3 -48 44 -100 91 -52 46
-124 112 -160 146 -36 34 -96 90 -134 125 -125 116 -204 193 -841 813 -60 59
-177 171 -259 249 -82 78 -217 208 -300 288 -269 261 -299 289 -430 413 -71
66 -136 128 -145 136 -88 84 -314 277 -491 419 -81 65 -177 91 -318 85 -170
-6 -334 -65 -406 -144 -123 -136 -120 -319 7 -510 47 -70 72 -96 561 -591 618
-625 1275 -1297 1720 -1763 32 -33 115 -120 185 -192 108 -112 361 -375 567
-590 104 -108 427 -444 484 -503 61 -64 420 -438 490 -511 25 -26 126 -132
226 -236 224 -235 340 -356 423 -442 52 -55 298 -312 476 -498 22 -23 105
-110 185 -194 80 -84 168 -176 195 -205 286 -299 379 -396 410 -430 21 -22 81
-85 134 -140 136 -143 411 -432 461 -485 36 -38 179 -188 390 -410 163 -171
323 -342 356 -379 22 -25 55 -63 75 -85 153 -175 364 -474 423 -598 51 -109
69 -187 69 -308 1 -258 -136 -471 -378 -593 -46 -23 -130 -54 -165 -62 -148
-32 -254 -54 -291 -59 -25 -4 -57 -9 -70 -11 -13 -2 -93 -16 -177 -29 -414
-69 -541 -125 -917 -406 -93 -70 -187 -137 -207 -151 -21 -13 -38 -27 -38 -30
0 -4 21 -14 48 -23 26 -10 56 -21 67 -26 11 -5 88 -34 170 -66 222 -84 357
-118 465 -117 54 1 300 13 345 18 22 2 105 7 185 10 80 3 168 8 195 10 45 4
171 9 450 20 654 25 1616 25 2090 0 39 -2 126 -6 195 -9 69 -4 143 -8 165 -11
22 -2 85 -7 140 -10 55 -3 118 -8 140 -10 22 -2 72 -7 110 -10 39 -3 88 -7
110 -10 22 -2 72 -7 110 -10 39 -3 81 -8 95 -10 14 -3 48 -7 75 -9 70 -7 144
-15 185 -22 19 -3 51 -7 70 -9 57 -7 113 -14 140 -19 14 -3 48 -8 75 -11 28
-3 75 -10 105 -15 30 -5 69 -12 85 -14 175 -28 503 -89 650 -122 11 -2 34 -7
50 -9 32 -6 138 -30 195 -45 19 -5 112 -27 205 -50 181 -45 403 -107 575 -161
125 -39 240 -44 356 -15 101 25 129 44 143 100 34 135 -2 321 -87 456 -20 30
-66 115 -103 189 -126 248 -127 354 -4 426 69 40 228 82 375 100 128 15 188
29 245 57 67 34 271 176 268 188 -1 3 -33 56 -70 116 -152 243 -280 316 -673
380 -14 3 -36 7 -50 9 -14 3 -43 7 -65 10 -22 3 -62 10 -90 15 -27 5 -75 12
-105 15 -30 3 -62 8 -70 10 -8 2 -44 7 -80 10 -36 3 -72 8 -80 10 -8 2 -49 7
-90 10 -41 4 -87 8 -103 10 -96 12 -212 20 -562 40 -88 5 -685 5 -795 0 -89
-4 -174 -9 -345 -20 -38 -3 -86 -7 -105 -9 -19 -3 -69 -8 -110 -11 -116 -10
-153 -14 -180 -19 -14 -3 -50 -8 -80 -11 -30 -3 -71 -8 -90 -10 -126 -17 -381
-23 -470 -11 -287 41 -478 109 -695 251 -129 84 -186 133 -500 431 -82 78
-166 156 -185 174 -237 219 -871 843 -1041 1025 -105 112 -289 323 -399 456
-289 352 -424 538 -745 1029 -47 72 -175 290 -263 447 -202 363 -239 468 -240
673 -1 252 83 457 258 630 195 194 426 272 780 264 234 -5 424 -45 653 -138
92 -38 98 -40 292 -127 129 -57 439 -211 570 -282 400 -217 791 -465 1183
-750 85 -61 176 -128 202 -147 186 -135 649 -512 945 -771 98 -85 379 -335
409 -364 6 -6 43 -39 81 -75 138 -126 331 -306 380 -355 105 -104 147 -185
147 -283 0 -113 -70 -220 -227 -344 -143 -112 -224 -159 -302 -171 -15 -3 -46
-9 -68 -15 -22 -6 -53 -13 -70 -16 -16 -2 -86 -17 -155 -31 -473 -100 -780
-241 -1014 -466 -50 -48 -88 -90 -84 -94 17 -17 314 -86 470 -109 21 -3 62 -9
90 -13 104 -15 659 -6 728 12 8 2 53 7 98 10 46 4 92 8 101 10 10 2 55 6 102
10 46 4 91 8 99 10 17 3 102 13 200 23 95 9 892 8 1055 -2 275 -16 357 -23
535 -41 30 -3 75 -7 100 -9 43 -4 104 -11 195 -22 50 -6 72 -9 280 -34 94 -11
186 -23 205 -26 67 -10 165 -23 215 -29 28 -4 57 -8 65 -10 8 -3 42 -7 75 -10
33 -3 67 -8 75 -10 8 -2 35 -7 60 -10 82 -9 229 -31 281 -40 9 -2 40 -6 70
-10 30 -3 65 -8 79 -10 14 -3 43 -7 65 -10 22 -2 90 -11 150 -19 103 -14 176
-23 235 -31 14 -2 54 -6 90 -10 36 -4 79 -9 95 -11 43 -5 117 -13 173 -19 26
-3 85 -9 132 -15 182 -21 385 -29 476 -17 110 14 139 41 131 121 -9 90 -108
264 -212 374 -19 21 -35 43 -35 50 0 19 -39 77 -120 177 -115 143 -135 202
-89 251 25 27 115 58 199 69 30 3 66 8 80 10 14 2 48 7 75 10 227 25 437 117
566 247 82 83 74 125 -41 232 -81 74 -244 163 -331 180 -13 2 -44 9 -69 15
-129 29 -241 35 -645 34 -303 0 -422 -4 -520 -17 -16 -2 -59 -7 -95 -11 -36
-3 -81 -8 -100 -10 -19 -2 -62 -7 -95 -10 -112 -10 -157 -17 -316 -50 -9 -2
-32 -6 -50 -9 -19 -3 -45 -8 -59 -11 -14 -3 -50 -8 -80 -11 -30 -3 -57 -7 -60
-9 -29 -18 -527 -27 -667 -12 -441 46 -858 211 -1224 484 -177 131 -277 224
-571 534 -75 79 -174 176 -219 214 -45 39 -87 75 -93 80 -6 6 -34 28 -61 50
-28 21 -52 42 -55 45 -4 5 -109 83 -530 397 -30 23 -102 78 -160 122 -58 45
-273 208 -478 362 -206 154 -381 287 -390 294 -181 144 -271 227 -272 247 0 4
-6 13 -14 20 -41 41 -85 169 -93 270 -11 148 42 301 140 400 90 92 131 109
467 202 164 46 443 112 510 122 19 3 42 7 50 9 8 2 31 7 50 10 163 26 548 117
790 186 96 28 182 52 190 54 81 19 628 214 755 270 17 7 58 25 92 39 245 102
592 273 846 417 38 22 73 39 78 39 5 0 9 4 9 8 0 5 15 16 33 25 91 47 315 189
592 378 137 93 549 413 653 507 14 12 50 44 80 70 259 222 688 648 883 877 19
22 43 49 54 60 12 11 43 47 70 80 28 33 52 62 55 65 40 36 382 475 547 700
140 193 332 484 443 675 29 50 63 107 76 127 13 21 24 39 24 41 0 2 29 56 64
120 327 592 635 1358 879 2187 81 273 196 698 212 782 2 11 7 28 10 38 3 10 7
27 9 37 2 10 20 86 40 168 20 83 45 188 56 235 62 271 80 348 85 377 3 18 12
63 21 100 9 38 18 79 21 93 2 14 9 45 14 70 17 74 181 876 195 950 3 14 7 33
10 42 3 10 7 30 10 45 4 24 39 198 49 243 2 8 15 69 29 135 13 66 34 161 46
210 12 50 23 99 25 110 2 11 20 85 40 165 20 80 38 152 40 160 2 8 27 98 55
200 29 102 56 199 60 215 50 185 260 776 334 938 8 18 21 48 29 67 54 134 222
476 323 657 118 210 196 331 320 494 120 157 184 230 343 390 396 395 876 713
1476 978 66 29 136 60 155 69 58 28 140 120 236 265 l92 137 -46 38 c-26 20
-61 49 -78 65 -76 68 -174 141 -232 174 -101 57 -154 67 -337 64 -272 -4 -357
-4 -440 2 -44 3 -136 9 -205 12 -218 10 -319 16 -505 30 -65 5 -156 16 -215
25 -113 19 -126 21 -170 31 -36 8 -211 57 -268 74 -7 3 -13 5 -15 5 -11 2
-484 166 -562 195 -55 20 -129 47 -165 60 -36 13 -146 54 -245 91 -99 37 -221
81 -270 98 -50 18 -95 34 -100 38 -6 3 -113 39 -240 81 -243 80 -451 140 -625
181 -119 28 -116 27 -265 55 -60 12 -117 23 -125 26 -8 2 -35 7 -60 10 -25 3
-81 12 -125 20 -44 7 -116 19 -160 25 -44 6 -91 13 -105 15 -14 2 -52 7 -85
10 -33 4 -71 8 -85 10 -14 2 -52 7 -85 10 -33 3 -81 8 -107 11 -48 5 -98 9
-283 21 -218 14 -704 7 -875 -12 -19 -2 -57 -7 -85 -9 -27 -3 -63 -8 -80 -11
-33 -5 -80 -12 -135 -20 -314 -43 -725 -152 -1126 -299 -61 -22 -323 -135
-364 -156 -19 -10 -82 -42 -140 -71 -120 -59 -241 -126 -350 -192 -41 -25 -99
-60 -128 -78 -139 -82 -465 -321 -652 -478 -278 -232 -620 -568 -831 -816 -19
-22 -37 -42 -40 -45 -3 -3 -30 -34 -60 -70 -181 -216 -348 -432 -539 -700
-213 -299 -364 -459 -600 -637 -255 -192 -680 -359 -1010 -398 -30 -3 -62 -8
-70 -10 -15 -4 -59 -10 -130 -19 -46 -6 -207 -33 -300 -51 -41 -8 -86 -16
-100 -19 -88 -15 -307 -62 -430 -92 -80 -20 -152 -37 -160 -39 -39 -8 -188
-47 -215 -55 -16 -6 -86 -26 -155 -45 -313 -89 -881 -281 -1065 -360 -16 -7
-46 -18 -65 -25 -19 -7 -48 -19 -65 -26 -16 -7 -70 -29 -120 -49 -49 -21 -103
-43 -120 -50 -16 -8 -79 -34 -138 -59 -60 -26 -142 -62 -183 -81 -42 -19 -77
-35 -78 -35 -7 0 -356 -169 -551 -267 -192 -96 -253 -128 -445 -231 -74 -39
-218 -118 -240 -132 -8 -5 -42 -23 -75 -41 -33 -17 -84 -47 -113 -65 -29 -19
-55 -34 -58 -34 -3 0 -44 -23 -92 -51 -48 -29 -101 -60 -118 -70 -17 -9 -62
-36 -100 -59 -38 -24 -87 -53 -109 -65 -45 -25 -196 -118 -395 -243 -187 -118
-673 -440 -800 -530 -58 -42 -134 -96 -170 -120 -184 -128 -686 -505 -904
-679 -248 -198 -256 -205 -291 -234 -16 -14 -41 -35 -55 -46 -14 -11 -101 -85
-195 -164 -147 -124 -193 -164 -249 -214 -6 -5 -45 -39 -86 -75 -70 -61 -112
-98 -186 -166 -33 -31 -166 -149 -194 -174 -104 -89 -242 -173 -329 -201 -234
-74 -409 52 -515 371 -21 64 -35 116 -37 135 0 2 -5 19 -10 37 -5 18 -18 74
-29 123 -23 107 -228 1045 -270 1230 -16 72 -31 141 -33 155 -3 14 -26 120
-52 235 -45 204 -112 510 -122 550 -2 11 -6 31 -9 45 -3 14 -10 43 -16 65 -5
22 -12 51 -14 65 -2 14 -8 43 -14 65 -11 44 -31 132 -85 370 -20 88 -44 196
-55 240 -16 68 -42 178 -55 235 -40 173 -122 509 -181 744 -42 166 -77 306
-78 311 -1 6 -8 28 -14 50 -164 571 -201 689 -344 1095 -16 47 -61 168 -99
270 -39 102 -71 190 -73 195 -2 6 -8 22 -14 36 -5 14 -38 95 -72 180 -123 303
-243 582 -365 844 -144 309 -463 953 -539 1085 -14 25 -29 52 -33 60 -8 17
-219 405 -253 465 -12 22 -39 69 -60 105 -20 36 -49 86 -63 112 -40 72 -201
348 -283 484 -40 67 -81 135 -91 152 -10 17 -58 97 -108 177 -49 81 -94 154
-100 163 -40 68 -450 713 -570 897 -375 574 -450 682 -521 752 -166 162 -414
285 -572 282 -26 0 -76 -9 -112 -20z"/>
<path d="M33835 33905 c-348 -53 -508 -258 -519 -664 -9 -314 190 -619 462
-710 105 -36 239 -47 327 -27 222 48 440 231 543 456 91 197 77 437 -37 629
-90 153 -250 269 -428 312 -66 16 -252 18 -348 4z"/>
</g>
</svg>
