<svg
    id="email-circle"
    class="email-circle"
    xmlns="http://www.w3.org/2000/svg"
    viewBox="0 0 500 500"
    shape-rendering="geometricPrecision"
    text-rendering="geometricPrecision"
    image-rendering="optimizeQuality"
    fill-rule="evenodd"
    clip-rule="evenodd"
>
    <path
        class="email-circle"
        d="M 350,150 H 150 c -13.75,0 -24.875,11.25 -24.875,25 L 125,325 c 0,13.75 11.25,25 25,25 h 200 c 13.75,0 25,-11.25 25,-25 V 175 c 0,-13.75 -11.25,-25 -25,-25 z M 150.00025,199.99925 250,262.5 350,199.99925 V 325 H 150.00025 Z m 0,-24.999 L 250,237.5 350,175.00025 Z"
    />
    <path
        class="email-circle"
        d="M 250,500 C 388.07,500 500,388.07 500,250 500,111.92875 388.07,0 250,0 111.92875,0 0,111.92875 0,250 0,388.07 111.92875,500 250,500 Z m 0,-50 C 360.4575,450 450,360.4575 450,250 450,139.543 360.4575,50 250,50 139.543,50 50,139.543 50,250 c 0,110.4575 89.543,200 200,200 z"
    />
</svg>
