<svg id="instagram-square" version="1.1" text-rendering="geometricPrecision" image-rendering="optimizeQuality" shape-rendering="geometricPrecision" xmlns="http://www.w3.org/2000/svg" xmlns:xlink="http://www.w3.org/1999/xlink" x="0px" y="0px" viewBox="0 0 448 512" style="enable-background:new 0 0 448 512;" xml:space="preserve"> <style type="text/css"> .st0{fill-rule:evenodd;clip-rule:evenodd;} </style> <path class="st0" d="M405.6,32.5H42.4c-23.1,0-41.9,18.9-41.9,41.9v363.2c0,23.1,18.9,41.9,41.9,41.9h363.2 c23.1,0,41.9-18.9,41.9-41.9V74.4C447.5,51.3,428.7,32.5,405.6,32.5z M157.7,100.5h132.7c49.8,0,90.5,40.2,90.5,89.4v132.3 c0,49.2-40.7,89.4-90.5,89.4H157.7c-49.8,0-90.5-40.2-90.5-89.4V189.8C67.1,140.7,107.9,100.5,157.7,100.5z M223.2,172 c48.4,0,87.7,39.3,87.7,87.7c0,48.4-39.3,87.7-87.7,87.7c-48.4,0-87.7-39.3-87.7-87.7C135.5,211.3,174.7,172,223.2,172z M223.2,201.6c32.1,0,58.1,26,58.1,58.1c0,32.1-26,58.1-58.1,58.1c-32.1,0-58.1-26-58.1-58.1C165.1,227.6,191.1,201.6,223.2,201.6 L223.2,201.6z M308,159.9c7.9,0,14.2,6.4,14.2,14.2s-6.4,14.2-14.2,14.2c-7.9,0-14.2-6.4-14.2-14.2 C293.8,166.2,300.1,159.9,308,159.9z M168.5,125.9h111c41.7,0,75.8,33.9,75.8,75.3v111.5c0,41.4-34.1,75.3-75.8,75.3h-111 c-41.7,0-75.8-33.9-75.8-75.3V201.2C92.8,159.8,126.8,125.9,168.5,125.9L168.5,125.9z" style="fill: rgb(74, 65, 57);"/> </svg>